<svg xmlns="http://www.w3.org/2000/svg" xml:space="preserve" style="fill-rule:evenodd;clip-rule:evenodd;stroke-linejoin:round;throwIfNamespace:false;stroke-miterlimit:2" viewBox="0 0 512 512"><g><path d="M0 0h512v512H0z" style="fill:none"/><clipPath id="a"><path d="M0 0h512v512H0z"/></clipPath><g clip-path="url(#a)"><path d="m1343 578 221.7 128v256L1343 1090l-221.7-128V706L1343 578Zm16.77 257.626 118.94 111.205h21.92v-1.289l-123.79-116.378 113.48-106.383v-1.612h-20.96l-109.59 102.823V721.169h-92.52c-38.04 0-74.15 18.697-74.15 61.573 0 23.211 14.19 41.264 36.75 48.357-28.36 7.737-44.48 30.625-44.48 56.738 0 46.422 43.19 58.994 81.88 58.994h92.52V835.626Zm-17.42 4.177v90.265h-75.1c-28.37 0-64.8-6.77-64.8-42.554.32-35.139 32.24-47.711 62.54-47.711h77.36Zm0-103.805v87.364h-77.36c-27.08 0-55.45-8.382-55.45-40.62 0-32.882 29.66-46.744 57.71-46.744h75.1Z" style="fill:#fff" transform="translate(-1087 -578)"/></g></g></svg>